<svg xmlns="http://www.w3.org/2000/svg" xmlns:xlink="http://www.w3.org/1999/xlink" width="1920" zoomAndPan="magnify" viewBox="0 0 1440 809.999993" height="1080" preserveAspectRatio="xMidYMid meet" version="1.0"><defs><clipPath id="3f17a818a1"><path d="M 0 100.800781 L 13 100.800781 L 13 117 L 0 117 Z M 0 100.800781" clip-rule="nonzero"></path></clipPath><clipPath id="ad6a512211"><path d="M 720 0 L 734.21875 0 L 734.21875 4.878906 L 720 4.878906 Z M 720 0" clip-rule="nonzero"></path></clipPath><clipPath id="e84cd3a369"><path d="M 724.628906 -4.878906 L 729.257812 -4.878906 C 731.984375 -4.878906 734.195312 -2.695312 734.195312 0 C 734.195312 2.695312 731.984375 4.878906 729.257812 4.878906 L 724.628906 4.878906 C 722.074219 4.878906 720 2.808594 720 0.25 L 720 -0.25 C 720 -2.808594 722.074219 -4.878906 724.628906 -4.878906 Z M 724.628906 -4.878906" clip-rule="nonzero"></path></clipPath><clipPath id="3eaa695136"><path d="M 0 0 L 14.21875 0 L 14.21875 4.878906 L 0 4.878906 Z M 0 0" clip-rule="nonzero"></path></clipPath><clipPath id="8b6736561c"><path d="M 4.628906 -4.878906 L 9.257812 -4.878906 C 11.984375 -4.878906 14.195312 -2.695312 14.195312 0 C 14.195312 2.695312 11.984375 4.878906 9.257812 4.878906 L 4.628906 4.878906 C 2.074219 4.878906 0 2.808594 0 0.25 L 0 -0.25 C 0 -2.808594 2.074219 -4.878906 4.628906 -4.878906 Z M 4.628906 -4.878906" clip-rule="nonzero"></path></clipPath><clipPath id="9c1d4cc4f3"><rect x="0" width="15" y="0" height="5"></rect></clipPath></defs><path fill="#ffffff" d="M 690.34375 423.082031 C 690.503906 420.097656 689.71875 422.652344 691.320312 422.863281 C 692.445312 423.011719 691.71875 423.113281 691.726562 423.140625 C 691.972656 424.207031 690.234375 425.140625 690.34375 423.082031 Z M 691.574219 411.480469 C 688.855469 408.308594 689.632812 406.734375 692.402344 405.0625 Z M 637.507812 250.140625 C 633.460938 254.023438 629.730469 255.527344 627.597656 260.945312 C 625.742188 265.660156 622.257812 270.984375 619.410156 274.332031 C 613.523438 274.019531 608.28125 272.734375 602.015625 274.105469 C 593.945312 275.867188 596.109375 276.910156 586.671875 275.375 C 579.996094 274.292969 578.40625 270.277344 574.042969 269.179688 L 557.183594 271.414062 C 553.472656 273.730469 551.644531 279.382812 549.347656 281.875 C 539.320312 292.757812 536.84375 288.097656 520.402344 288.636719 C 509.136719 289.003906 512.800781 290.382812 506.253906 293.496094 C 501.789062 292.617188 501.21875 290.375 496.300781 288.414062 C 490.191406 285.96875 491.320312 285.292969 488.242188 280.429688 C 485.039062 275.367188 484.734375 275.550781 481.214844 271.414062 C 477.878906 267.488281 479.109375 264.21875 476.886719 259.761719 C 471.558594 260.363281 472.609375 262.496094 469.714844 266.546875 C 465.96875 271.792969 462.46875 269.476562 459.441406 277.074219 C 455.746094 286.339844 454.464844 280.164062 452.839844 293.242188 C 451.824219 301.40625 453.972656 303.691406 453.851562 308.773438 C 453.773438 311.984375 452.042969 314.167969 452.96875 317.605469 C 455.777344 328.03125 462.054688 323.300781 457.425781 336.984375 C 459.433594 339.125 459.667969 338.398438 461.558594 341.113281 C 462.863281 342.980469 463.636719 344.914062 464.628906 346.535156 C 463.570312 348.789062 464.132812 347.210938 463.15625 348.8125 C 461.96875 350.753906 462.46875 349.082031 461.378906 352.203125 C 462.480469 353.730469 467.28125 358.328125 468.40625 358.972656 C 463.011719 363 462.925781 363.714844 466.742188 370.820312 C 468.007812 373.175781 468.28125 373.371094 471.285156 373.953125 C 473.277344 370.902344 468.992188 369.992188 473.464844 368.683594 C 475.699219 368.03125 479.546875 368.8125 481.679688 369.316406 C 487.519531 373.472656 486.039062 398 485.570312 405.109375 C 492.449219 409.835938 490.457031 412.757812 490.648438 421.679688 L 497.527344 421.226562 C 501.972656 442.054688 486.472656 440.148438 522.359375 440.101562 C 526.453125 440.097656 529.851562 440.96875 532.714844 440.113281 C 537.324219 438.730469 538.058594 436.808594 542.164062 436.179688 C 545.480469 441.648438 543.042969 450.511719 544.074219 457.214844 C 548.359375 457.121094 547.253906 456.265625 550.761719 455.308594 C 553.238281 454.636719 556.425781 454.707031 559.167969 454.347656 C 565.828125 453.476562 565.910156 450.46875 573.351562 449.417969 C 576.042969 452.878906 576.792969 453.328125 581.855469 453.324219 C 584.34375 450.625 588.265625 447.671875 589.941406 444.488281 C 591.292969 441.929688 588.734375 443.3125 592.253906 440.832031 C 601.050781 441.042969 592.964844 446.804688 601.53125 448.785156 C 609.074219 450.527344 608.574219 449.183594 610.6875 457.34375 C 625.121094 456.03125 635.160156 437.101562 633.820312 481.996094 C 642.605469 481.460938 660.046875 470.601562 668.210938 465.972656 C 671.371094 464.183594 675.367188 459.976562 678.675781 460.464844 C 680.714844 465.007812 678.929688 472.144531 682.03125 476.394531 C 685.441406 474.285156 684.089844 474.339844 685.484375 470.902344 C 686.511719 468.367188 688.1875 466.417969 688.703125 465.023438 C 690.601562 459.863281 689.71875 457.753906 687.851562 453.164062 C 690.722656 450.710938 690.945312 450.3125 690.074219 446.3125 C 684.480469 447.605469 685.6875 451.109375 683.128906 455.109375 C 682.738281 446.796875 683.199219 442.0625 686.382812 435.867188 C 695.109375 436.273438 689.167969 432.816406 691.796875 428.109375 C 693.613281 424.859375 697.777344 424.238281 700.164062 419.300781 C 698.945312 417.121094 697.890625 415.90625 697.285156 413.542969 C 696.449219 410.292969 697.738281 410.070312 696.78125 407.429688 C 695.699219 404.449219 690.121094 400.386719 691.246094 395.675781 C 694.785156 389.503906 699.144531 390.378906 701.816406 384.265625 C 704.640625 377.800781 707.183594 378.0625 714.773438 374.550781 C 715.664062 371.632812 714.964844 370.324219 716.9375 368.175781 C 718.957031 365.976562 720.480469 366.359375 722.570312 364.449219 C 722.695312 364.242188 722.804688 363.648438 722.84375 363.777344 L 724.546875 358.769531 C 728.679688 349.609375 730.054688 357.570312 726.976562 342.152344 C 723.253906 323.546875 724.707031 332.746094 728.917969 316.773438 C 730.140625 312.140625 729.429688 307.789062 730.777344 303.648438 C 732.386719 298.707031 735.660156 299.800781 739.644531 296.414062 C 748.207031 289.136719 750.648438 294.554688 763.304688 297.390625 C 766.734375 294.722656 766.003906 293.847656 771.042969 292.179688 C 769.773438 286.453125 766.09375 284.980469 762.667969 280.078125 C 758.613281 274.289062 756.070312 275.398438 751.648438 271.238281 C 749.859375 269.554688 749.425781 268.3125 747.082031 266.355469 C 737.988281 258.769531 740.539062 259.554688 736.535156 256.101562 C 734.570312 254.40625 732.542969 252.636719 731.371094 251.03125 C 734.136719 248.589844 736.078125 249.035156 739.4375 247.109375 C 738.335938 240.820312 733.296875 234.117188 729.984375 228.699219 C 727.054688 223.898438 726.113281 225.367188 721.515625 222.886719 C 719.742188 221.929688 718.011719 221.007812 718.796875 218.167969 C 719.957031 213.972656 719.378906 217.550781 723.332031 215.171875 C 720.570312 211.457031 713.632812 208.628906 711.523438 205.136719 C 719.71875 204.820312 719.128906 204.433594 725.503906 206.882812 C 727.632812 205.039062 728.207031 205.523438 728.875 202.886719 C 726.144531 199.148438 726.753906 202.8125 723.210938 198.574219 C 721.636719 196.695312 720.160156 194.1875 719.789062 191.5625 C 726.53125 190.164062 726.507812 194.179688 731.175781 195.074219 L 732.816406 188.980469 C 727.371094 186.613281 727.910156 187.9375 726.71875 182.566406 L 721.726562 182.734375 C 720.933594 179.578125 723.082031 179.703125 712.144531 177.402344 L 702.207031 175.855469 C 701.980469 175.820312 699.261719 174.820312 698.742188 174.652344 C 693.210938 182.160156 690.851562 175.546875 686.328125 173.34375 C 683.667969 179.734375 683.128906 178.589844 675.398438 177.9375 C 656.207031 176.316406 662.585938 186.234375 655.523438 204.789062 C 652.796875 211.957031 656.941406 213.644531 653.835938 219.011719 C 650.714844 224.410156 647.480469 223.546875 644.875 226.222656 C 642.621094 228.542969 642.445312 233.355469 639.515625 236.90625 C 634.617188 242.847656 637.3125 241.324219 637.507812 250.140625 Z M 637.507812 250.140625" fill-opacity="1" fill-rule="evenodd"></path><path fill="#ffffff" d="M 366.4375 538.242188 C 369.175781 526.695312 374.3125 510.269531 373.578125 498.941406 C 373.195312 492.972656 378.667969 488.898438 377.464844 480.945312 C 376.523438 474.722656 375.246094 479.296875 378.394531 473.085938 C 380.238281 469.453125 377.382812 467.570312 375.734375 465.609375 L 378.339844 456.902344 C 378.910156 455.398438 378.335938 456.441406 379.171875 454.875 C 382.152344 449.277344 382.035156 452.796875 380.234375 445.28125 C 379.714844 443.109375 379.605469 440.335938 379.339844 437.746094 C 382.730469 439.050781 389.289062 443.371094 392.589844 442.589844 C 396.296875 441.710938 392.230469 441.828125 396.628906 439.816406 C 399.503906 441.675781 399.386719 442.613281 403.550781 443.109375 C 402.9375 436.304688 401.53125 439.472656 404.332031 433.601562 C 409.570312 422.632812 401.246094 424.566406 395.007812 420.929688 C 391.558594 418.921875 390.824219 417.203125 387.652344 415.046875 C 388.78125 410.960938 389.007812 413.242188 386.941406 409.246094 C 385.402344 406.265625 385.382812 404.835938 384.59375 401.023438 C 383.019531 393.433594 383.757812 391.171875 378.671875 386.265625 L 375.28125 387.269531 C 369.417969 389.511719 371.191406 389.960938 362.332031 388.296875 C 360.902344 389.660156 360.84375 390.042969 359.726562 391.667969 L 355.613281 390.171875 C 353.765625 392.535156 352.109375 396.167969 351.835938 398.617188 C 351.132812 404.859375 352.453125 402.183594 350.335938 408.171875 C 363.761719 408.253906 366.316406 403.242188 373.660156 412.835938 L 369.085938 414.03125 C 369.378906 423.277344 374.867188 416.273438 378.046875 434.285156 C 368.4375 429.96875 371.945312 426.34375 361.851562 421.914062 C 357.144531 419.847656 358.839844 419.035156 352.769531 416.8125 C 346.21875 414.410156 348.519531 416.265625 343.488281 415.707031 C 342.261719 410.082031 344.238281 408.808594 338.058594 407.707031 C 331.976562 406.621094 332.304688 407.066406 333.847656 401.023438 C 335.261719 395.5 335.847656 375.207031 329.570312 375.070312 C 327.933594 375.035156 328.675781 375.136719 327.238281 375.265625 C 324.53125 375.507812 325.753906 375.847656 322.492188 375.277344 C 316.644531 374.257812 299.6875 369.292969 297.53125 364.488281 C 302.410156 359.015625 314.722656 353.070312 312.382812 342.917969 C 305.160156 342.375 300.097656 346.492188 295.792969 349.636719 C 293.167969 351.550781 290.582031 352.832031 288.507812 354.652344 C 285.695312 357.128906 284.425781 358.78125 279.515625 355.984375 L 282.777344 352.742188 C 294.015625 346.78125 303.117188 339.347656 315.617188 335.515625 L 315.488281 326.9375 C 308.636719 326.117188 309.441406 328.15625 305.902344 330.542969 C 304.136719 329.363281 305.234375 330.601562 303.46875 328.179688 C 300.84375 324.558594 300.542969 320.472656 295.9375 318.695312 C 288.875 315.96875 288.949219 313.027344 282.074219 310.113281 C 281.398438 306.128906 282.921875 300.167969 277.976562 298.835938 C 270.457031 296.808594 274.667969 305.707031 269.761719 304.152344 C 265.523438 302.8125 265.449219 295.289062 261.15625 289.238281 C 260.152344 287.820312 260.625 288.722656 259.886719 286.84375 C 258.988281 284.554688 260.625 286.347656 258.683594 283.363281 L 253.007812 282.691406 C 249.730469 288.191406 254.460938 291.664062 247.3125 290.75 C 245.453125 287.628906 247.320312 285.488281 248.976562 283.292969 C 247.660156 281.277344 247.507812 281.867188 246.472656 279.199219 C 244.855469 275.019531 242.21875 268.609375 237.859375 265.703125 C 232.019531 269.925781 236.097656 273.519531 233.136719 280.1875 C 225.148438 279.519531 230.429688 271.054688 227.382812 265.316406 C 226.097656 262.890625 223.4375 262.308594 221.730469 260.484375 C 217.144531 255.582031 222.722656 259.367188 220.410156 254.285156 C 217.320312 251.640625 220.554688 254.222656 218.402344 253.664062 L 216.140625 252.964844 C 211.628906 250.335938 208.296875 241.699219 203.757812 239.710938 L 205.492188 256.121094 C 207.308594 264.066406 202.726562 264.214844 199.253906 257.703125 C 195.597656 250.847656 186.648438 248.972656 181.605469 244.976562 C 181.738281 241.210938 183.238281 243.367188 182.152344 240.421875 C 180.554688 236.101562 175.4375 229.660156 173.59375 225.578125 C 171.867188 221.753906 172.039062 217.109375 168.722656 215.289062 C 163.703125 212.53125 163.800781 215.417969 157.996094 209.980469 C 141.265625 194.316406 138.613281 202.53125 130.171875 190.550781 C 127.1875 186.316406 124.535156 187.28125 119.410156 185.363281 C 119.734375 181.769531 121.132812 179.5625 120.75 176.515625 C 120.234375 172.359375 117.613281 171.910156 116.851562 170.070312 C 114.640625 164.726562 121.160156 164.808594 109.613281 158.132812 C 109.125 153.214844 112.867188 154.160156 105.742188 150.683594 C 98.660156 147.226562 102.121094 147.039062 98.476562 144.679688 C 94.945312 142.394531 84 146.71875 77.171875 145.167969 C 72.792969 144.171875 71.503906 145.945312 66.84375 145.847656 C 46.054688 145.414062 48.246094 137.542969 38.453125 134.058594 C 21.046875 151.078125 50.453125 189.535156 63.484375 195.835938 C 76.71875 202.238281 68.917969 203.003906 76.710938 207.199219 C 80.164062 209.058594 82.246094 209.695312 84.402344 211.785156 C 90.050781 217.246094 87.972656 222.777344 92.550781 228.160156 C 96.648438 232.980469 96.984375 239.933594 101.96875 243.363281 C 107.257812 247 106.535156 244.121094 104.972656 248.835938 C 109.550781 251.558594 113.453125 252.242188 115.8125 255.941406 C 117.957031 259.308594 121.265625 265.933594 125.410156 263.371094 C 124.804688 261.039062 125.078125 262.351562 123.464844 260.644531 C 121.488281 258.5625 122.523438 260.75 120.722656 257.429688 C 123.710938 258.421875 123.875 258.917969 126.0625 260.097656 C 136.742188 265.84375 130.792969 263.308594 134.75 273.820312 C 136.214844 277.710938 139.726562 280.089844 140.796875 282.878906 C 142.929688 288.449219 139.148438 290.507812 141.609375 296.1875 C 145.347656 304.828125 144.738281 311.3125 150.238281 318.855469 C 153.207031 322.929688 153.507812 327.542969 155.011719 329.285156 C 155.90625 330.320312 164.550781 333.898438 172.617188 342.777344 C 175.636719 346.101562 178.949219 352.570312 183.15625 355.875 C 186.425781 358.445312 185.230469 356.394531 186.738281 359.847656 C 188.570312 364.023438 188.652344 368.183594 191.136719 371.507812 C 192.722656 373.628906 193.851562 374.039062 194.722656 375.53125 L 199.527344 385.804688 C 200.234375 388.378906 200.636719 390.117188 201.328125 392.546875 C 203.414062 399.835938 202.070312 397.753906 206.652344 402.304688 C 210.578125 406.207031 209.261719 408.078125 210.636719 414.421875 C 212.386719 422.503906 219.453125 425.96875 224.394531 431.8125 C 229.410156 437.742188 231.410156 444.910156 235.996094 451.371094 C 241.488281 459.113281 249.671875 463.628906 259.359375 474.335938 C 260.648438 475.761719 261.765625 476.992188 263.152344 478.136719 C 265.058594 479.707031 265.859375 479.992188 267.703125 482.085938 C 271.492188 486.382812 269.640625 488.0625 275.167969 489.847656 C 279.839844 491.355469 281.964844 491.199219 285.386719 495.546875 C 290.589844 502.160156 305.257812 512.195312 316.417969 526.921875 C 318.519531 529.691406 328.351562 542.546875 330.726562 542.660156 C 332.828125 536.816406 323.328125 530.980469 326.296875 522.097656 C 331.164062 522.777344 328.769531 521.964844 331.207031 525.429688 C 333.671875 528.933594 338.628906 530.554688 342.40625 533.046875 C 345.378906 535.007812 340.410156 533.839844 345.890625 534.804688 C 347.199219 529.402344 345.238281 529.097656 350.320312 525.933594 C 355.695312 527.300781 360.851562 535.320312 366.433594 538.238281 Z M 366.4375 538.242188" fill-opacity="1" fill-rule="evenodd"></path><path fill="#ffffff" d="M 1383.632812 596.867188 L 1385.171875 600.496094 L 1379.960938 600.667969 C 1379.972656 597.90625 1380.617188 597.601562 1383.632812 596.867188 Z M 1386.339844 593.996094 C 1384.792969 596.484375 1386.589844 595.429688 1383.496094 595.894531 C 1385.347656 593.675781 1383.722656 595.195312 1386.339844 593.996094 Z M 1412.902344 600.941406 C 1413.902344 597.816406 1414.3125 598.277344 1414.222656 595.273438 C 1414.125 592.019531 1412.441406 592.664062 1416.332031 591.359375 C 1417.546875 594.128906 1415.886719 592.859375 1416.355469 596.03125 C 1417 600.371094 1416.527344 599.890625 1412.902344 600.945312 Z M 1380.492188 588.554688 C 1381.347656 588.949219 1381.480469 588.683594 1382.382812 589.308594 C 1384.234375 590.589844 1383.195312 589.554688 1384.144531 591.300781 C 1380.613281 592.59375 1381.359375 590.597656 1380.492188 588.554688 Z M 1418.371094 584.6875 C 1418.382812 584.214844 1420.101562 583.070312 1419.546875 584.78125 C 1419.347656 585.382812 1418.277344 587.964844 1418.371094 584.6875 Z M 1377.242188 581.699219 C 1380.523438 582.984375 1380.636719 582.5625 1380.285156 586.519531 C 1377.867188 585.632812 1376.796875 584.828125 1377.242188 581.699219 Z M 1221.863281 453.027344 C 1218.46875 447.902344 1221.507812 441.785156 1223.519531 443.75 C 1224.796875 444.996094 1222.476562 444.890625 1223.335938 448.882812 C 1223.984375 451.910156 1225.597656 451.660156 1221.863281 453.027344 Z M 1225.421875 411.449219 C 1229.515625 407.632812 1228.804688 407.671875 1232.140625 406.710938 L 1231.101562 418.382812 C 1227.242188 414.703125 1229.601562 413.480469 1225.421875 411.449219 Z M 1131.214844 371.292969 C 1136.703125 368.308594 1137.113281 371.582031 1141.324219 365.328125 C 1143.824219 367.84375 1144 367.304688 1144.601562 369.6875 C 1146.304688 376.453125 1131.113281 381.605469 1131.214844 371.292969 Z M 1225.421875 411.449219 C 1225.210938 416.601562 1226.453125 418.460938 1221.621094 419.230469 C 1215.703125 420.167969 1216.410156 418.070312 1213.804688 423.261719 L 1211.070312 423.226562 C 1204.675781 418.140625 1199.488281 426.605469 1187.066406 422.671875 C 1182.453125 421.210938 1187.339844 423.777344 1180.863281 421.71875 C 1178.496094 435.347656 1156.925781 420.390625 1155.945312 432.214844 C 1157.914062 434.402344 1157.242188 433.632812 1160.960938 434.625 C 1163.828125 435.390625 1164.40625 435.195312 1166.050781 437.097656 C 1169.347656 440.902344 1165.25 440.058594 1172.605469 441.714844 C 1178.527344 443.050781 1173.894531 443.066406 1180.34375 446.453125 C 1191.328125 452.222656 1187.628906 453.636719 1186.730469 461.003906 C 1193.230469 466.128906 1193.046875 462.785156 1193 473.171875 C 1196.777344 476.25 1199.636719 479.296875 1204.761719 480.3125 C 1206.800781 478.738281 1207.996094 476.214844 1209.179688 473.835938 L 1215.300781 473.394531 C 1212.046875 457.925781 1214.1875 470.761719 1211.554688 462.660156 C 1211.859375 462.195312 1218.304688 455.585938 1220.15625 455.085938 C 1224.039062 459.90625 1215.855469 464.605469 1223.652344 469.257812 C 1228.097656 471.910156 1227.816406 468.855469 1229.734375 474.445312 C 1231.683594 480.128906 1229.777344 477.382812 1234.683594 480.53125 L 1235.007812 478.925781 C 1236.566406 469.730469 1244.703125 480.808594 1248.113281 484.320312 C 1252.0625 484.332031 1252.78125 482.628906 1255.507812 483.617188 C 1259.3125 485 1256.601562 485.90625 1256.878906 489.90625 C 1270.699219 492.207031 1273.714844 490.039062 1287.203125 495.539062 L 1327.230469 510.285156 C 1342.144531 514.953125 1337.628906 515.589844 1343.96875 520.964844 C 1346.089844 522.757812 1350.125 523.835938 1353.769531 530.039062 C 1355.980469 533.804688 1354.601562 533.640625 1355.847656 537.363281 C 1360.242188 539.367188 1360.910156 537.261719 1364.140625 541.214844 C 1362.742188 546.40625 1361.734375 541.445312 1359.585938 547.261719 L 1365.296875 548.464844 L 1363.273438 550.535156 C 1361.460938 552.78125 1362.359375 550.359375 1361.648438 553.5 L 1366.671875 557.816406 C 1369.132812 559.503906 1364.878906 558.238281 1369.429688 559.1875 L 1370.726562 558.808594 L 1371.84375 561.234375 C 1373.597656 564.511719 1367.867188 565.386719 1375.828125 567.757812 C 1377.597656 568.546875 1377.15625 566.808594 1377.191406 569.832031 C 1379.507812 571.050781 1377.902344 568.40625 1379.03125 570.75 C 1376.316406 576.390625 1380.746094 574.488281 1378.671875 579.113281 C 1376.277344 581.59375 1360.734375 570.292969 1348.921875 582.488281 C 1341.632812 590.011719 1340.0625 599.242188 1337.332031 611.8125 L 1362.890625 610.933594 C 1364.460938 609.421875 1364.417969 608.558594 1367.1875 607.777344 L 1369.972656 612.03125 L 1382.03125 612.988281 C 1383.054688 611.003906 1383.035156 610.140625 1383.980469 609.089844 L 1387.410156 606.804688 C 1393.96875 602.925781 1393.074219 605.238281 1398.644531 603.9375 C 1399.53125 601.226562 1398.386719 600.324219 1399.09375 598.375 C 1399.957031 596.015625 1401.042969 597.050781 1404.046875 596.878906 C 1404.175781 597.085938 1404.308594 597.195312 1404.363281 597.546875 L 1407.113281 602.238281 C 1409.273438 603.933594 1407.359375 602.152344 1412.519531 601.742188 C 1413.785156 605.355469 1413.203125 605.277344 1417.675781 610.753906 C 1420.558594 614.285156 1421.332031 613.195312 1424.285156 618.34375 C 1426.117188 621.53125 1434.457031 631.28125 1439.292969 633.519531 L 1439.433594 417.414062 C 1435.949219 415.117188 1434.292969 416.035156 1428.742188 413.457031 C 1421.699219 410.183594 1425.371094 410.546875 1418.539062 411.890625 C 1414.933594 412.597656 1413.25 409.582031 1409.453125 408.230469 C 1405.773438 406.921875 1401.082031 406.703125 1397.164062 405.371094 C 1381.175781 399.9375 1347.964844 374.726562 1337.6875 381.253906 C 1335.417969 382.695312 1335.863281 383.003906 1334.035156 384.253906 C 1332.117188 385.5625 1330.972656 385.472656 1329.054688 386.832031 C 1324.910156 389.769531 1326.9375 393.382812 1320.9375 393.476562 C 1318.296875 393.515625 1312.652344 391.621094 1309.613281 390.960938 C 1302.355469 389.390625 1276.179688 383.855469 1271.320312 387.691406 C 1271.886719 393.648438 1288.792969 392.386719 1294.460938 392.746094 C 1316.992188 394.160156 1311.402344 396.820312 1315.660156 400.101562 C 1311.890625 406.972656 1308.835938 404.332031 1301.566406 406.53125 C 1298.121094 410.046875 1296.960938 414.898438 1292.9375 418.777344 C 1286.144531 425.328125 1273.117188 445.222656 1262.621094 439.898438 C 1257.664062 437.386719 1262.5625 436.855469 1259.308594 432.820312 C 1251.898438 432.585938 1258.5 435.578125 1253.195312 434.6875 C 1250.910156 434.304688 1249.753906 431.414062 1249.320312 428.488281 C 1247.640625 417.199219 1255.421875 419.855469 1242.386719 419.234375 C 1239.355469 410.324219 1240.273438 401.046875 1239.617188 390.925781 C 1239.3125 386.195312 1238.203125 380.636719 1238.109375 376.585938 C 1237.742188 361.113281 1239.207031 372.273438 1234.699219 365.4375 C 1236.199219 362.074219 1236.769531 362.992188 1236.480469 359.113281 C 1226.144531 355.242188 1221.65625 361.355469 1208.21875 354.242188 C 1202.136719 351.019531 1193.058594 345.113281 1186.273438 343.136719 C 1175.625 340.042969 1168.308594 347.867188 1163.660156 352.808594 C 1151.191406 366.0625 1156.28125 357.445312 1142.269531 364.316406 C 1139.480469 361.605469 1138.1875 356.6875 1133.175781 357.417969 C 1130.96875 357.742188 1129.332031 359.285156 1127.4375 359.878906 C 1124.917969 360.667969 1124.453125 359.808594 1121.734375 360.777344 C 1122.910156 363.15625 1122.757812 361.984375 1124.199219 364.492188 C 1124.019531 364.648438 1123.65625 364.527344 1123.5625 364.820312 C 1122.617188 367.757812 1122.375 363.445312 1120.117188 367.328125 C 1123.4375 372.691406 1125.160156 372.644531 1127.640625 374.4375 C 1124.226562 376.957031 1125.035156 374.832031 1121.613281 376.777344 C 1121.996094 384.492188 1123.757812 378.667969 1125.507812 384 C 1127.445312 389.890625 1122.34375 382.613281 1127.390625 390.628906 C 1133.714844 388.121094 1143.386719 385.21875 1151.84375 387.210938 C 1154.339844 392.578125 1152.730469 392.109375 1152.863281 397.339844 C 1157.679688 398.121094 1163.636719 397.277344 1167.464844 399.773438 C 1172.652344 403.152344 1169.582031 407.183594 1173.457031 411.90625 C 1176.296875 413.253906 1176.691406 412.691406 1179.652344 413.3125 C 1182.265625 413.863281 1183.277344 414.773438 1185.554688 415.726562 C 1191.097656 418.046875 1193.039062 417.332031 1198.035156 415.574219 C 1205.3125 413.011719 1217.699219 409.148438 1225.421875 411.453125 Z M 1225.421875 411.449219" fill-opacity="1" fill-rule="evenodd"></path><path fill="#ffffff" d="M 804.566406 508.484375 C 806.160156 510.949219 806.589844 512.804688 806.722656 516.695312 C 805.308594 514.992188 803.5 510.671875 804.566406 508.484375 Z M 794.492188 352.851562 L 794.832031 354.492188 C 794.8125 354.578125 794.578125 354.847656 794.492188 355.046875 C 794.425781 354.9375 791.691406 356.097656 794.492188 352.851562 Z M 796.527344 352.203125 C 796.539062 351.449219 798.429688 350.015625 797.8125 352.210938 C 797.441406 353.53125 796.484375 354.824219 796.527344 352.203125 Z M 854.585938 302.617188 C 857.441406 300.851562 861.726562 300.886719 866.039062 301.492188 C 864.261719 303.191406 863.054688 303.265625 860.515625 303.9375 C 855.015625 305.386719 855.648438 303.929688 854.585938 302.617188 Z M 906.699219 517.445312 C 907.535156 515.382812 904.363281 516.503906 908.804688 515.648438 C 913.226562 513.601562 906.308594 500.773438 909.683594 491.910156 C 910.847656 488.859375 912.753906 485.023438 909.835938 480.640625 C 904.773438 473.046875 902.335938 482.761719 901.28125 484.371094 C 897.082031 483.414062 885.539062 473.882812 881.5625 471.28125 C 881.136719 464.308594 883.289062 464.640625 883.269531 458.808594 C 880.351562 455.59375 874.28125 453.953125 874.089844 448.597656 C 877.730469 445.773438 882.601562 446.636719 879.328125 438.523438 C 877.34375 433.605469 863.089844 416.972656 857.425781 413.042969 C 853.933594 410.621094 853.707031 411.71875 852.941406 407.960938 C 860.6875 402.238281 869.8125 401.070312 872.074219 399.554688 L 877.195312 395.238281 C 885.699219 388.128906 889.644531 388.570312 896.554688 377.796875 L 904.671875 375.472656 C 909.253906 374.023438 910.265625 376.371094 914.859375 374.296875 C 917.828125 368.375 912.640625 363.179688 906.023438 362.789062 C 899.785156 362.425781 890 360.96875 885.21875 362.597656 C 886.441406 366.070312 889.058594 365.160156 888.667969 369.707031 L 882.902344 369.039062 L 881.433594 363.617188 C 877.171875 362.570312 876.359375 362.871094 871.949219 363.453125 C 867.898438 363.988281 867.015625 361.574219 863.808594 364.488281 C 864.820312 369.875 869.296875 366.585938 873.058594 367.058594 C 874.070312 367.1875 873.160156 366.890625 874.621094 367.644531 C 878.253906 369.523438 879.136719 370.027344 878.070312 374.359375 C 870.957031 376.441406 870.660156 375.285156 864.894531 372.519531 C 863.773438 367.582031 864.117188 362.023438 857.449219 364.957031 C 857.402344 364.976562 848.679688 371.953125 848.53125 372.203125 C 845.726562 376.921875 848.742188 375.042969 842.636719 382.40625 C 839.949219 385.648438 835.421875 387.535156 831.53125 384.070312 C 829.160156 379.886719 832.316406 379.308594 826.546875 375.882812 C 820.132812 372.082031 813.699219 371.230469 810.621094 363.574219 C 809.792969 361.511719 810.054688 360.851562 808.886719 358.679688 C 807.117188 355.375 806.9375 357.070312 806.050781 353.871094 C 803.386719 344.269531 807.578125 328.375 814.851562 322.488281 C 817.371094 320.453125 816.800781 321.441406 819.078125 320.097656 C 822.242188 318.230469 820.140625 318.757812 823.042969 316.753906 C 830.34375 320.0625 830.128906 319.804688 839.652344 318.039062 C 846.308594 316.800781 852.664062 317.636719 859.699219 317.117188 L 860.4375 318.40625 C 862.253906 320.90625 861.851562 320.988281 865.371094 321.0625 L 866.316406 317.382812 C 868.976562 318.554688 872.128906 316.714844 882.980469 318.53125 C 887.675781 319.316406 882.832031 318.917969 887.617188 317.832031 C 892.652344 316.691406 904.753906 320.875 909.925781 321.828125 C 932.847656 326.042969 932.589844 320.917969 942.503906 316.890625 C 957.453125 310.820312 948.257812 311.476562 954.867188 301.820312 C 956.785156 299.015625 958.300781 296.84375 960.46875 294.214844 C 963.527344 290.503906 968.460938 283.957031 970.070312 277.402344 C 968.238281 275.53125 966.304688 274.339844 962.511719 273.894531 C 960.273438 278.605469 960.816406 278.117188 954.050781 278.6875 C 952.382812 282.890625 949.210938 286.414062 945.710938 289.863281 C 940.402344 295.09375 939.832031 293.808594 933.304688 297.261719 C 926.058594 301.09375 929.59375 302.359375 918.308594 301.949219 L 881.625 298.089844 C 875.089844 297.027344 870.496094 295.835938 864.34375 294.65625 C 856.183594 293.089844 837.546875 284.617188 832.910156 285.011719 C 826.578125 293.558594 825.070312 302.785156 822.84375 305.894531 C 816.019531 305.660156 812.820312 296.75 807.359375 306.480469 C 805.808594 309.246094 805.59375 311.328125 803.535156 314.027344 C 798.898438 320.101562 797.355469 318.84375 795.804688 327.855469 C 794.875 333.246094 793.042969 342.03125 793.285156 346.25 C 793.824219 355.59375 792.816406 349.0625 791.605469 353.328125 C 791.429688 353.945312 791.542969 360.519531 791.046875 362.730469 L 785.566406 363.558594 C 785.644531 366.5625 784.171875 367.054688 783.71875 369.414062 C 783.035156 372.972656 784 368.679688 783.695312 372.105469 C 783.359375 375.929688 781.738281 376.125 778.847656 378.667969 C 780.230469 383.09375 781.609375 381.144531 781.183594 388.496094 C 779.417969 389.875 778.039062 390.65625 776.628906 392.09375 C 778.066406 393.910156 779.953125 395.546875 779.226562 399.273438 C 778.730469 401.816406 778.710938 401.25 776.902344 402.667969 L 773.683594 405.128906 C 775.558594 409.742188 777.121094 409.996094 775.773438 416.421875 C 774.707031 421.527344 771.53125 422.273438 766.875 423.753906 C 767.636719 430.132812 768.359375 436.742188 761.570312 442.699219 C 764.574219 451.976562 762.132812 458.117188 766.589844 465.867188 C 776.375 465.804688 778.527344 458.574219 783.152344 456.328125 C 789.28125 464.539062 789.066406 468.730469 789.132812 480.738281 C 789.292969 509.660156 777.375 522.441406 784.390625 530.53125 C 792.253906 539.601562 800.015625 530.097656 807.980469 529.957031 C 809.652344 532.125 808.90625 532.367188 811.503906 534.203125 C 812.941406 531.535156 812.382812 528.640625 815.285156 526.910156 C 818.914062 524.742188 820.664062 527.949219 823.511719 528.75 L 825.652344 526.316406 C 823.332031 516.457031 817.8125 523.617188 818.0625 502.464844 C 818.171875 493.179688 818.519531 482.222656 820.433594 473.589844 C 825.058594 452.691406 820.230469 462.300781 817.488281 450.242188 C 816.5625 446.175781 813.734375 441.875 814.6875 437.652344 C 815.527344 433.917969 819.132812 430.902344 822.84375 429.636719 C 827.523438 432.234375 823.484375 433.058594 827.546875 433.21875 C 830.378906 433.328125 830.523438 430.710938 832.222656 429.476562 C 837.398438 425.726562 841.054688 431.742188 842.496094 435.605469 C 846.523438 446.398438 835.292969 453.8125 832.296875 458.050781 C 831.722656 464.59375 835.164062 467.269531 839.632812 469.59375 C 849.128906 474.535156 844.683594 470.214844 848.757812 480.335938 C 853.863281 481.0625 855.789062 478.164062 859.453125 481.910156 C 860.605469 483.085938 864.652344 489.480469 865.066406 491.480469 C 866.765625 499.636719 856.433594 504.960938 865.566406 513.539062 C 877.65625 513.632812 873.335938 503.835938 881.472656 500.625 C 892.296875 496.359375 885.332031 499.074219 890.691406 494.707031 C 892.847656 492.953125 897.097656 490.910156 899.902344 491.03125 C 899.992188 491.035156 900.269531 491.074219 900.433594 491.148438 C 902.703125 497.609375 896.082031 497.507812 892.269531 499.132812 C 887.136719 501.324219 886.828125 506.746094 891.722656 508.78125 C 895.300781 505.398438 892.746094 502.625 899.046875 502.699219 C 899.589844 509.421875 895.125 505.382812 893.710938 511.144531 C 892.050781 517.921875 895.296875 517.445312 899.003906 519.875 C 899.089844 522.921875 898.050781 523.765625 899.054688 526.457031 C 900.632812 530.699219 905.121094 527.460938 905.40625 524.003906 C 905.757812 519.730469 902.175781 520.601562 906.703125 517.445312 Z M 906.699219 517.445312" fill-opacity="1" fill-rule="evenodd"></path><path fill="#ffffff" d="M 366.4375 538.242188 C 364.902344 541.570312 363.382812 543.664062 362.1875 548.367188 C 360.25 555.984375 359.5625 555.429688 354.332031 559.398438 C 349.148438 563.328125 351.8125 559.613281 350.210938 563.875 C 346.460938 573.847656 345.921875 566.695312 346.515625 573.34375 C 356.4375 578.214844 369.933594 568.453125 378.132812 576.714844 C 380.339844 582.996094 376.121094 589 382.382812 593.304688 C 387.519531 596.835938 395.078125 594.542969 401.40625 594.828125 C 410.738281 595.25 411.828125 597.390625 416.828125 600.359375 C 417.335938 600.660156 431.128906 604.566406 433.269531 604.886719 C 443.8125 606.472656 442.96875 603.917969 449.9375 602.125 C 457.851562 600.089844 493.132812 610.570312 500.546875 613.09375 C 510.714844 616.554688 519.78125 622.257812 531.835938 623.15625 C 537.074219 623.546875 546.941406 624.742188 551.570312 624.382812 C 566.503906 623.210938 573.296875 626.75 578.902344 624.277344 C 582.988281 622.472656 581.019531 621.476562 585.914062 620.964844 C 591.625 620.367188 596.773438 623.226562 601.144531 625.886719 C 605.054688 628.261719 611.5625 629.058594 616.304688 631.503906 C 619.640625 633.226562 627.050781 637.605469 630.859375 637.550781 C 631.359375 635.011719 633.164062 609.441406 633.039062 607.359375 C 632.371094 596.035156 621.511719 596.351562 612.207031 599.957031 C 604.082031 603.109375 593.222656 600.453125 586.5 597.023438 C 582.621094 595.042969 582.65625 591.203125 582.238281 585.476562 C 581.707031 578.28125 583.816406 578.652344 580.3125 573.058594 L 577.050781 573.34375 C 573.8125 567.59375 571.617188 568.28125 563.859375 568.6875 C 555.644531 569.121094 557.671875 565.96875 550.523438 565.15625 C 541.863281 564.167969 541.105469 569.101562 538.449219 562.96875 C 536.902344 559.398438 538.359375 559.476562 533.761719 559.269531 C 530.710938 559.132812 528.21875 559.613281 524.738281 559.34375 C 523.496094 556.921875 523.722656 554.792969 519.621094 555.101562 C 516.75 555.316406 515.117188 557.664062 514.054688 559.410156 L 506.585938 570.472656 C 501.230469 570.804688 481.03125 570.109375 476.53125 568.917969 C 469.375 567.03125 472.140625 569.242188 464.683594 569.332031 C 446.605469 569.558594 450.457031 560.878906 446.800781 556.257812 C 443.011719 551.460938 439.375 556.632812 435.425781 552.515625 C 434.019531 551.050781 434.3125 549.6875 431.847656 548.507812 C 429.695312 547.480469 415.300781 548.132812 411.433594 547.820312 C 409.4375 543.019531 409.761719 540.757812 404.183594 539.265625 C 395.84375 537.039062 398.429688 541.644531 392.957031 541.84375 C 388.363281 542.007812 384.261719 538.578125 381.101562 537.664062 C 378.757812 536.988281 371.664062 538.625 366.4375 538.238281 Z M 366.4375 538.242188" fill-opacity="1" fill-rule="evenodd"></path><path fill="#ffffff" d="M 1027.703125 626.292969 C 1022.617188 625.363281 1017.6875 621.984375 1012.152344 622.832031 C 1007.425781 623.554688 1003.882812 626.375 996.707031 626.996094 C 980.8125 628.367188 988.726562 629.621094 982.046875 632.398438 C 974.558594 635.515625 973.625 631.230469 970.925781 640.171875 C 968.269531 648.976562 967.863281 646.847656 959.726562 648.867188 C 957.449219 649.429688 948.0625 652.613281 945.652344 653.605469 C 938.300781 656.628906 930.757812 667.277344 928.113281 674.464844 C 929.316406 676.71875 930.390625 677.363281 932.480469 679.191406 C 931.988281 687.578125 929.816406 686.039062 924.910156 690.523438 C 920.035156 694.980469 922.210938 695.988281 914.691406 699.21875 C 911.894531 700.417969 909.460938 700.855469 908.492188 702.550781 C 907.300781 704.632812 907.347656 708.25 909.800781 708.90625 C 910.851562 709.1875 921.75 706.054688 923.960938 705.542969 C 933.574219 685.230469 928.632812 692.789062 943.378906 689.289062 C 947.195312 688.382812 952.535156 685.519531 955.78125 683.628906 C 974.207031 672.886719 960.476562 683.355469 972.492188 669.132812 C 977.402344 663.316406 973.953125 665.769531 975.417969 658.816406 C 980.730469 653.824219 999.804688 649.433594 1008.273438 644.460938 C 1011.65625 642.476562 1034.632812 628.207031 1036.792969 625.324219 C 1036.242188 623.433594 1036.371094 622.914062 1034.835938 621.976562 C 1030.546875 619.359375 1031.808594 622.25 1031.671875 622.394531 C 1031.609375 622.945312 1031.480469 624.824219 1031.410156 625.28125 C 1031.136719 626.972656 1031.078125 626.667969 1030.695312 627.671875 Z M 1027.703125 626.292969" fill-opacity="1" fill-rule="evenodd"></path><path fill="#ffffff" d="M 743.882812 617.757812 C 746.308594 620.804688 745.785156 621.8125 746.296875 622.355469 C 751.070312 624.90625 752.558594 623.316406 754.027344 628.363281 C 750.011719 628.625 747.355469 627.597656 745.097656 625.585938 C 741.421875 622.3125 742.367188 621.855469 743.242188 617.128906 C 743.457031 617.339844 743.742188 617.578125 743.882812 617.753906 Z M 754.800781 617.296875 C 751.335938 613.179688 753.796875 608.726562 746.296875 609.074219 C 744.464844 611.742188 745.542969 612.535156 744.425781 616.195312 C 740.878906 613.347656 743.175781 612.808594 740.980469 609.378906 C 732.78125 612.179688 740.140625 621.925781 740.152344 621.96875 C 741.113281 625.277344 740.246094 632.863281 736.84375 634.59375 C 731.957031 629.167969 737.96875 625.792969 728.574219 622.238281 C 723.085938 620.164062 718.054688 617.902344 713.679688 621.996094 C 707.660156 627.625 700.640625 639.398438 704.273438 649.421875 C 720.683594 655.683594 730.355469 643.777344 736.714844 642.503906 C 736.480469 645.941406 735.976562 645.265625 735.539062 647.773438 C 734.019531 656.46875 742.863281 650.546875 747.738281 648.523438 L 772.957031 641.507812 C 779.609375 640.273438 775.296875 639.371094 785.222656 637.617188 L 786.933594 632.113281 C 789.0625 636.238281 786.464844 634.863281 789.765625 637.0625 C 792.957031 635.433594 791.863281 636.726562 793.722656 627.890625 L 787.546875 629.960938 C 787.375 629.695312 786.441406 628.402344 786.109375 627.988281 C 785.996094 627.847656 785.796875 627.640625 785.679688 627.496094 C 785.558594 627.347656 785.359375 627.144531 785.238281 626.988281 L 783.734375 624.683594 C 778.453125 614.472656 776.988281 623.984375 765.722656 615.265625 C 762.546875 612.808594 763.289062 613.847656 758.339844 612.789062 C 757.570312 616.351562 758.027344 616.21875 754.800781 617.296875 Z M 754.800781 617.296875" fill-opacity="1" fill-rule="evenodd"></path><path fill="#ffffff" d="M 1072.28125 459.042969 C 1069.488281 459.96875 1060.070312 461.144531 1064.097656 454.75 C 1066.140625 451.507812 1072.621094 451.5 1072.28125 459.042969 Z M 1052.992188 435.097656 C 1048.484375 444.5 1050.597656 439.765625 1041.929688 442.585938 C 1040.441406 457 1049.304688 448.804688 1051.457031 458.050781 L 1045.089844 462.558594 C 1045.539062 466.097656 1046.066406 467.382812 1048.972656 468.234375 C 1051.828125 469.074219 1055.695312 468.921875 1058.101562 467.507812 C 1069.257812 460.960938 1066.804688 464.832031 1073.15625 467.164062 C 1077.871094 460.921875 1068.394531 466.222656 1084.042969 457.523438 C 1090.917969 453.699219 1095.085938 457.824219 1098.796875 461.109375 C 1102.613281 460.515625 1103.476562 458.671875 1107.804688 459.464844 C 1112.527344 460.324219 1113.203125 462.871094 1115.460938 464.183594 C 1119.085938 466.292969 1120.21875 464.054688 1123.222656 467.628906 C 1125.984375 470.917969 1124.679688 472.253906 1129.328125 474.296875 L 1129.046875 466.875 C 1134.984375 468.136719 1134.519531 474.308594 1141.996094 475.679688 C 1144.089844 466.1875 1132.929688 473.03125 1134.015625 458.535156 C 1134.675781 449.753906 1105.589844 436.492188 1104.375 436.441406 C 1101.613281 436.324219 1098.3125 438.40625 1093.121094 438.191406 C 1088.277344 437.992188 1087.542969 435.921875 1083.675781 434.433594 C 1082.046875 435.597656 1079.960938 437.027344 1078.097656 438.296875 C 1074.902344 440.476562 1075.015625 440.539062 1070.007812 439.5625 C 1063.941406 438.378906 1059.558594 435.511719 1052.988281 435.097656 Z M 1052.992188 435.097656" fill-opacity="1" fill-rule="evenodd"></path><path fill="#ffffff" d="M 797.9375 635.941406 C 807.046875 638.699219 798.59375 638.503906 818.425781 641.15625 C 821.777344 641.605469 820.152344 641.105469 822.183594 641.164062 L 837.15625 642.726562 C 839.492188 642.535156 841.363281 641.007812 843.683594 640.996094 C 846.28125 640.980469 847.507812 642.660156 850.121094 643.417969 C 853.832031 644.496094 852.671875 643.253906 856.679688 642.261719 C 862.800781 640.75 864.59375 643.328125 872.65625 640.191406 C 878.101562 638.074219 880.972656 636.652344 887.023438 635.511719 C 895.40625 633.933594 908.09375 623.675781 909.898438 619.632812 C 901.902344 618.007812 901.015625 620.511719 895.007812 623.730469 C 892.574219 625.035156 890.199219 625.761719 888.082031 627.230469 C 884.945312 629.398438 885.914062 630.589844 880.617188 630.011719 C 874.757812 629.367188 869.335938 625.566406 863.796875 628.488281 C 859.886719 630.550781 861.972656 631.003906 856.113281 628.945312 C 844.496094 624.871094 841.273438 619.101562 836.429688 619.121094 C 823.355469 619.175781 832.492188 615.382812 821.265625 618.054688 C 808.613281 621.0625 815.34375 621.136719 808.300781 625.941406 C 801.632812 630.488281 799.195312 624.679688 797.9375 635.941406 Z M 797.9375 635.941406" fill-opacity="1" fill-rule="evenodd"></path><path fill="#ffffff" d="M 787.765625 657.480469 C 783.324219 657.355469 784.417969 656.601562 779.246094 663.035156 C 769.765625 674.839844 789.511719 671.367188 794.402344 673.324219 C 797.125 674.761719 794.792969 673.476562 796.820312 675.921875 C 800.140625 679.921875 799.28125 677.539062 805.945312 680.023438 C 813.210938 682.730469 809.503906 684.910156 813.453125 690.507812 C 819.488281 699.058594 833.886719 686.472656 836.585938 682.96875 C 833.578125 677.664062 831.898438 680.882812 829.167969 674.707031 C 826.890625 669.570312 826.640625 670.4375 822.160156 667.558594 C 815.082031 663.011719 813.058594 658.523438 802.101562 658.640625 C 795.953125 658.707031 792.636719 657.613281 787.765625 657.480469 Z M 787.765625 657.480469" fill-opacity="1" fill-rule="evenodd"></path><path fill="#ffffff" d="M 1249.957031 527.109375 C 1248.851562 526.339844 1247.550781 524.84375 1245.429688 525.394531 C 1241.875 526.324219 1244.101562 525.628906 1243.207031 529.664062 C 1242.160156 534.402344 1240.351562 534.460938 1239.746094 539.398438 L 1243.554688 539.949219 C 1243.9375 548.796875 1242.34375 564.941406 1244.589844 572.117188 C 1248.8125 571.292969 1248.992188 570.820312 1249.238281 566.023438 C 1252.890625 566.503906 1254.421875 571.078125 1257.550781 559.105469 C 1259.933594 549.976562 1259.675781 553.117188 1265.957031 548.773438 C 1264.941406 544.488281 1265.46875 547.683594 1259.996094 541.210938 C 1260.9375 536.082031 1263.472656 534.089844 1262.632812 530.566406 C 1261.226562 524.625 1260.066406 528.203125 1259.710938 519.390625 C 1259.445312 512.835938 1252.796875 508.558594 1249.957031 527.109375 Z M 1249.957031 527.109375" fill-opacity="1" fill-rule="evenodd"></path><path fill="#ffffff" d="M 997.410156 442.886719 C 993.335938 456.488281 984.382812 451.90625 989.585938 459.398438 C 995.457031 467.851562 1005.710938 478.945312 1018.039062 472.800781 C 1034.519531 464.582031 1027.765625 458.15625 1022.839844 452.753906 C 1017.957031 447.402344 1019.480469 447.660156 1010.691406 448.242188 C 1003.683594 448.707031 1002.488281 444.445312 997.410156 442.886719 Z M 997.410156 442.886719" fill-opacity="1" fill-rule="evenodd"></path><path fill="#ffffff" d="M 642.855469 609.726562 C 644.410156 611.738281 642.679688 609.890625 644.636719 611.527344 C 647.808594 614.1875 649 613.035156 652.816406 618.527344 C 646.941406 617.625 639.019531 616.347656 633.914062 618.5 C 635.078125 622.4375 636.121094 621.738281 639.625 624.28125 C 651.027344 632.554688 654.542969 631.695312 655.285156 641.730469 C 670.21875 632.855469 670.558594 640.433594 672.300781 634.546875 C 677.875 615.710938 663.003906 619.257812 657.003906 614.457031 C 656.492188 614.046875 656.238281 613.519531 655.023438 612.621094 C 652.003906 610.394531 647.5625 609.863281 642.855469 609.726562 Z M 642.855469 609.726562" fill-opacity="1" fill-rule="evenodd"></path><path fill="#ffffff" d="M 159.09375 395.324219 C 159.851562 391.519531 156.449219 381.214844 154.90625 378.429688 C 153.253906 375.453125 151.113281 377.496094 149.921875 372.019531 C 149.132812 368.390625 149.738281 365.261719 148.5 362.117188 C 143.921875 359.75 142.355469 360.886719 137.761719 357.785156 C 136.183594 356.722656 134.292969 355.914062 133.152344 354.828125 C 130.40625 352.21875 132.949219 352.34375 129.179688 350.285156 C 127.539062 353.488281 129.261719 351.988281 130.234375 356.917969 C 130.785156 359.710938 131.0625 361.9375 131.679688 364.933594 C 133.027344 371.433594 133.011719 374.875 135.878906 380.421875 C 140.730469 389.8125 143.863281 389.054688 152.882812 391.722656 C 159.058594 393.546875 154.203125 394.085938 159.089844 395.324219 Z M 159.09375 395.324219" fill-opacity="1" fill-rule="evenodd"></path><path fill="#ffffff" d="M 425.472656 419.933594 C 421.894531 432.488281 427.6875 426.722656 424.15625 436.261719 L 424.382812 443.09375 C 424.757812 447.019531 426.460938 447.195312 430.648438 448.121094 C 435.3125 444.695312 434.734375 441.722656 438.382812 439.539062 C 444.40625 441.699219 440.128906 445.132812 445.335938 447.210938 C 447.253906 443.867188 446.386719 443.167969 446.390625 439.148438 C 448.496094 438.011719 459.367188 436.90625 452.441406 429.65625 L 449.539062 426.882812 C 449.398438 426.722656 449.222656 426.496094 449.085938 426.335938 L 448.140625 425.199219 C 448.035156 425.070312 447.832031 424.800781 447.660156 424.617188 C 432.722656 427.316406 432.972656 416.285156 425.46875 419.933594 Z M 425.472656 419.933594" fill-opacity="1" fill-rule="evenodd"></path><path fill="#ffffff" d="M 113.117188 319.4375 C 119.199219 313.171875 120.152344 300.011719 112.089844 293.699219 C 108.664062 291.019531 110.371094 292.523438 107.644531 289.640625 C 105.417969 287.289062 105.007812 288 102.792969 285.046875 C 99.808594 281.066406 98.644531 278.707031 91.796875 278.980469 C 91.175781 283.78125 93.75 285.660156 94.640625 290.386719 C 95.425781 294.546875 92.300781 301.714844 104.558594 311.617188 C 112.273438 317.851562 108.296875 317.898438 113.117188 319.433594 Z M 113.117188 319.4375" fill-opacity="1" fill-rule="evenodd"></path><path fill="#ffffff" d="M 922.761719 609.753906 C 924.101562 613.75 922.78125 611.238281 924.867188 614.808594 C 920.566406 612.765625 924.089844 612.195312 920.183594 609.667969 C 917.21875 611.992188 919.664062 616.984375 917.203125 620.773438 C 915.03125 624.113281 911.113281 625.472656 909.628906 630.40625 C 923.445312 633.015625 916.398438 624.714844 924.097656 627.050781 C 928.019531 628.242188 926.976562 629.597656 932.792969 627.589844 C 946.390625 622.894531 944.464844 625.449219 948.734375 625.984375 C 951.945312 626.390625 972.660156 621.714844 965.710938 615.632812 C 960.4375 612.851562 959.214844 616.945312 955.160156 618.664062 C 949.085938 621.234375 947.855469 618.675781 943.804688 617.558594 C 939.820312 616.460938 935.289062 617.582031 932.128906 615.242188 C 928.425781 612.5 929.285156 610.914062 922.765625 609.753906 Z M 922.761719 609.753906" fill-opacity="1" fill-rule="evenodd"></path><path fill="#ffffff" d="M 706.820312 624.375 C 711.359375 615.792969 686.667969 609.054688 677.96875 635.597656 C 675.058594 644.480469 691.539062 645.375 695.304688 641.414062 C 696.871094 639.765625 698.953125 635.1875 700.742188 632.671875 C 702.503906 630.195312 705.519531 626.835938 706.820312 624.375 Z M 706.820312 624.375" fill-opacity="1" fill-rule="evenodd"></path><path fill="#ffffff" d="M 1143.214844 623.375 C 1148.476562 622.125 1146.078125 620.085938 1151.296875 616.394531 L 1159.363281 609.328125 C 1162.191406 606.460938 1160.710938 606.269531 1162.886719 603.425781 C 1165.613281 599.859375 1165.839844 602.773438 1168.859375 598.871094 C 1169.101562 598.554688 1170.492188 596.109375 1170.535156 595.996094 C 1171.894531 592.351562 1171.140625 595.730469 1170.5625 593.242188 C 1168.46875 584.253906 1174.75 584.300781 1168.9375 580.101562 C 1161.9375 581.792969 1170.75 584.027344 1159.394531 582.929688 C 1158.820312 598.933594 1152.496094 591.804688 1148.644531 601.507812 C 1146.878906 605.953125 1147.191406 608.230469 1144.53125 612.472656 C 1142.542969 615.632812 1141.089844 619.269531 1143.210938 623.375 Z M 1143.214844 623.375" fill-opacity="1" fill-rule="evenodd"></path><path fill="#ffffff" d="M 583.644531 571.179688 C 582.988281 575.828125 585.164062 578.273438 589.292969 580.089844 C 595.621094 582.871094 609.871094 581.847656 616.0625 579.210938 C 619.925781 577.570312 624.699219 577.640625 629.21875 577.210938 C 628.203125 574.148438 626.761719 571.933594 625.226562 569.691406 C 611.316406 567.542969 596.484375 572.84375 592.402344 572.265625 C 589.8125 571.894531 586.824219 570.714844 583.640625 571.179688 Z M 583.644531 571.179688" fill-opacity="1" fill-rule="evenodd"></path><path fill="#ffffff" d="M 944.382812 395.191406 C 943.558594 398.832031 944.609375 399.152344 948.355469 400.613281 C 951.230469 401.734375 953.847656 403.601562 955.691406 403.488281 L 988.242188 402.210938 C 994.40625 402.238281 997.925781 403.539062 999.535156 398.171875 C 994.449219 393.664062 981.757812 395.992188 973.105469 396.0625 C 966.734375 396.109375 948.199219 394.558594 944.382812 395.191406 Z M 944.382812 395.191406" fill-opacity="1" fill-rule="evenodd"></path><path fill="#ffffff" d="M 1305.953125 374.3125 C 1307.230469 362.960938 1303.363281 363.765625 1295.824219 361.164062 C 1288.453125 358.621094 1287.398438 355.238281 1279.65625 353.410156 C 1280.789062 358.15625 1281.457031 358.925781 1282.21875 364.402344 C 1282.765625 368.304688 1283.214844 371.421875 1286.992188 372.949219 C 1291.785156 374.886719 1291.921875 371.726562 1296.855469 373.261719 C 1299.796875 374.179688 1298.996094 376.898438 1305.953125 374.3125 Z M 1305.953125 374.3125" fill-opacity="1" fill-rule="evenodd"></path><path fill="#ffffff" d="M 903.167969 382.445312 C 903.199219 386.328125 903.828125 385.617188 904.183594 387.832031 C 904.640625 390.683594 903.808594 389.09375 903.746094 392.550781 C 900.339844 391.183594 904.320312 389.546875 899.390625 390.457031 C 899.273438 390.699219 899.058594 390.765625 899.027344 391.1875 L 899.789062 395.292969 C 899.976562 395.371094 900.855469 395.757812 901.117188 395.863281 C 907.785156 398.550781 906.769531 395.285156 909.707031 397.878906 C 912.15625 400.960938 909.972656 397.902344 910.941406 401.984375 C 911.761719 405.4375 910.699219 403.671875 912.621094 406.238281 C 912.792969 406.070312 913 405.523438 913.066406 405.675781 C 913.84375 407.417969 913.078125 405.4375 914.820312 403.519531 C 915.160156 403.144531 919.6875 400.632812 918.222656 394.988281 C 917.542969 392.359375 916.328125 392.585938 915.417969 390.953125 C 918.289062 390.253906 915.910156 391.960938 919.265625 390.007812 C 919.753906 384.703125 913.847656 372.363281 903.167969 382.445312 Z M 903.167969 382.445312" fill-opacity="1" fill-rule="evenodd"></path><path fill="#ffffff" d="M 1117.652344 337.082031 C 1116.917969 343.132812 1120.191406 344.679688 1122.902344 348.417969 C 1128.871094 347.703125 1122.382812 347.292969 1132.945312 346.832031 C 1140.351562 346.507812 1149.664062 345.664062 1142.300781 337.058594 C 1140.671875 335.152344 1138.683594 333.429688 1135.652344 333.273438 C 1134.121094 333.191406 1118.953125 336.464844 1117.652344 337.082031 Z M 1117.652344 337.082031" fill-opacity="1" fill-rule="evenodd"></path><path fill="#ffffff" d="M 1107.832031 411.769531 C 1118.066406 412.515625 1118.019531 409.554688 1121.28125 403.238281 C 1119.03125 400.257812 1117.421875 401.394531 1117.089844 396.957031 C 1122.027344 397.789062 1116.144531 398.664062 1122.695312 399.601562 C 1122.289062 394.785156 1121.429688 396.609375 1117.695312 393.703125 C 1112.410156 395.082031 1115.171875 396.34375 1107.328125 395.765625 C 1103.300781 395.472656 1097.84375 394.03125 1097.21875 397.574219 C 1096.730469 400.324219 1106 408.828125 1107.832031 411.769531 Z M 1107.832031 411.769531" fill-opacity="1" fill-rule="evenodd"></path><path fill="#ffffff" d="M 1028.453125 599.988281 C 1025.488281 594.117188 1017.738281 596.167969 1010.449219 597.449219 C 1004.8125 598.4375 994.074219 598.125 993.921875 604.625 C 993.746094 612.1875 1007.148438 607.476562 1011.539062 606.132812 C 1016.320312 604.671875 1025.726562 602.785156 1028.453125 599.988281 Z M 1028.453125 599.988281" fill-opacity="1" fill-rule="evenodd"></path><path fill="#ffffff" d="M 308.714844 299.09375 L 310.726562 302.886719 C 316.789062 310.355469 317.03125 303.449219 322.480469 306.199219 C 324.3125 307.125 329.507812 314.488281 337.695312 307.472656 C 337.8125 303.179688 330.5 296.601562 326.695312 294.3125 C 316.410156 298.914062 322.949219 300.863281 308.714844 299.09375 Z M 308.714844 299.09375" fill-opacity="1" fill-rule="evenodd"></path><path fill="#ffffff" d="M 68.453125 247.996094 C 70.761719 243.1875 69.09375 243.242188 65.601562 240.960938 C 62.957031 239.230469 65.144531 241.667969 62.8125 238.070312 C 58 230.636719 56.832031 235.515625 49.363281 232.636719 C 44.578125 230.792969 45.617188 229.148438 40.96875 227.957031 C 41.328125 234.558594 45.519531 239.148438 51.234375 242.121094 C 54.828125 243.992188 57.222656 243.195312 60.214844 244.5 C 65.253906 246.695312 62.25 249.207031 68.453125 247.996094 Z M 68.453125 247.996094" fill-opacity="1" fill-rule="evenodd"></path><path fill="#ffffff" d="M 184.132812 429.296875 L 184.792969 428.039062 C 184.5 424.222656 183.886719 421.542969 182.003906 419.375 C 178.507812 415.347656 178.453125 418.964844 176.417969 413.75 C 174.296875 408.324219 176.097656 397.929688 166.488281 401.792969 C 164.675781 407.824219 167.675781 419.171875 178.03125 423.335938 C 182.488281 425.128906 179.183594 422.929688 181.441406 425.644531 C 182.089844 426.425781 182.996094 427.984375 184.132812 429.296875 Z M 184.132812 429.296875" fill-opacity="1" fill-rule="evenodd"></path><path fill="#ffffff" d="M 885.214844 528.976562 C 887.8125 527.238281 891.523438 519.25 891.605469 518.421875 C 891.890625 515.574219 889.015625 508.75 884.34375 508.917969 C 873.191406 509.3125 879.863281 527.714844 885.214844 528.976562 Z M 885.214844 528.976562" fill-opacity="1" fill-rule="evenodd"></path><path fill="#ffffff" d="M 659.976562 568.921875 C 655.777344 566.28125 643.570312 568.359375 643.125 568.519531 C 645.285156 572.636719 645.136719 571.296875 648.941406 571.453125 C 656.691406 571.765625 659.433594 577.308594 670.636719 578.085938 C 669.15625 574.96875 662.75 570.667969 659.976562 568.925781 Z M 659.976562 568.921875" fill-opacity="1" fill-rule="evenodd"></path><path fill="#ffffff" d="M 995.113281 432.808594 C 995.085938 428.632812 994.0625 424.234375 992.792969 420.398438 C 991.035156 415.089844 990.386719 414.027344 984.351562 414.238281 C 984.851562 419.679688 986.300781 420.882812 988.074219 425.132812 C 989.992188 429.71875 989.996094 431.820312 995.117188 432.808594 Z M 995.113281 432.808594" fill-opacity="1" fill-rule="evenodd"></path><path fill="#ffffff" d="M 333.214844 362.796875 C 338.441406 362.78125 338.929688 362.289062 339.976562 357.855469 C 341.925781 349.605469 341.007812 356.136719 344.367188 351.25 L 343.382812 347.171875 C 339.335938 346.835938 336.378906 347.375 335.046875 351.054688 C 334.644531 352.167969 333.363281 360.328125 333.214844 362.796875 Z M 333.214844 362.796875" fill-opacity="1" fill-rule="evenodd"></path><path fill="#ffffff" d="M 1194.398438 547.6875 C 1199.339844 547.871094 1198.851562 545.140625 1203.546875 538.179688 C 1212.351562 525.136719 1208.789062 525.785156 1208.777344 525.804688 C 1208.671875 526.039062 1207.730469 524.734375 1206.304688 525.746094 L 1197.613281 540.792969 C 1195.070312 543.710938 1193.503906 542.308594 1194.398438 547.6875 Z M 1194.398438 547.6875" fill-opacity="1" fill-rule="evenodd"></path><path fill="#ffffff" d="M 878.664062 698.273438 C 869.855469 708.628906 885.113281 705.644531 888.472656 700.925781 C 886.65625 697.8125 886.003906 697.585938 878.664062 698.273438 Z M 878.664062 698.273438" fill-opacity="1" fill-rule="evenodd"></path><g clip-path="url(#3f17a818a1)"><path fill="#ffffff" d="M 12.984375 116.09375 C 11.679688 112.027344 4.152344 101.925781 0.566406 100.800781 C 0.691406 107.65625 6.714844 115.046875 12.984375 116.09375 Z M 12.984375 116.09375" fill-opacity="1" fill-rule="evenodd"></path></g><path fill="#ffffff" d="M 289.121094 308.894531 C 289.0625 313.785156 289.414062 311.90625 292 314.25 C 293.761719 315.847656 291.773438 316.257812 298.734375 317.277344 C 298.628906 317.03125 298.421875 316.417969 298.359375 316.570312 L 296.90625 313.976562 C 296.289062 312.3125 296.613281 311.269531 296.101562 309.976562 C 294.78125 306.621094 289.859375 307.996094 289.121094 308.894531 Z M 289.121094 308.894531" fill-opacity="1" fill-rule="evenodd"></path><path fill="#ffffff" d="M 1261.015625 359.640625 L 1262.5 361.410156 C 1262.640625 361.554688 1262.886719 361.746094 1263.042969 361.898438 C 1267.089844 365.863281 1266.824219 366.835938 1271.5 366.175781 C 1271.066406 362.757812 1268.691406 360.355469 1267.457031 357.691406 Z M 1261.015625 359.640625" fill-opacity="1" fill-rule="evenodd"></path><path fill="#ffffff" d="M 333.042969 341.054688 L 340.015625 340.746094 C 338.730469 336.425781 339.109375 337.085938 335.222656 336.144531 C 335.496094 332.269531 336.183594 333.304688 334.496094 330.589844 C 330.6875 332.046875 332.398438 330.691406 332.828125 335.496094 C 333.0625 338.128906 332.476562 338.328125 333.039062 341.054688 Z M 333.042969 341.054688" fill-opacity="1" fill-rule="evenodd"></path><path fill="#ffffff" d="M 231.679688 493.429688 C 230.6875 488.957031 228.351562 485.683594 223.910156 484.851562 C 221.332031 490.515625 225.679688 492.839844 231.679688 493.429688 Z M 231.679688 493.429688" fill-opacity="1" fill-rule="evenodd"></path><path fill="#ffffff" d="M 849.6875 702.417969 C 853.019531 702.464844 852.257812 702.15625 855.066406 700.09375 C 856.328125 699.167969 859.179688 698.117188 857.15625 695.902344 C 854.019531 692.464844 849.085938 697.390625 849.6875 702.417969 Z M 849.6875 702.417969" fill-opacity="1" fill-rule="evenodd"></path><path fill="#ffffff" d="M 152.808594 366.167969 C 154.902344 365.125 156.773438 363.21875 157.378906 360.710938 C 156.085938 358.152344 156.347656 358.03125 152.808594 357.828125 C 149.839844 361.449219 150.28125 363.464844 152.808594 366.167969 Z M 152.808594 366.167969" fill-opacity="1" fill-rule="evenodd"></path><path fill="#ffffff" d="M 132.078125 329.300781 C 135.222656 328.210938 132.226562 330.253906 137.195312 324.183594 C 139.519531 321.34375 137.945312 320.113281 133.90625 319.574219 L 132.878906 322.816406 C 132.289062 328.507812 129.589844 324.078125 132.078125 329.300781 Z M 132.078125 329.300781" fill-opacity="1" fill-rule="evenodd"></path><path fill="#ffffff" d="M 1266.050781 355.988281 C 1265.378906 352.734375 1263.742188 351.617188 1261.972656 349.691406 C 1259.714844 347.230469 1259.21875 345.75 1254.792969 345.242188 C 1256.261719 349.855469 1261.496094 353.722656 1266.046875 355.988281 Z M 1266.050781 355.988281" fill-opacity="1" fill-rule="evenodd"></path><path fill="#ffffff" d="M 122.847656 387.117188 C 123.75 383.320312 119.5 380.855469 115.285156 381.707031 C 115.160156 385.265625 116.210938 387.199219 120.15625 387.796875 C 125.191406 388.566406 120.980469 388.21875 122.847656 387.117188 Z M 122.847656 387.117188" fill-opacity="1" fill-rule="evenodd"></path><path fill="#ffffff" d="M 1110.84375 607.742188 C 1114.835938 607.140625 1116.335938 607.066406 1118.683594 604.53125 C 1116.273438 600.851562 1115.242188 601.125 1110.949219 601.839844 Z M 1110.84375 607.742188" fill-opacity="1" fill-rule="evenodd"></path><path fill="#ffffff" d="M 458.214844 382.855469 C 455.882812 378.460938 456.753906 382.589844 454.773438 378.183594 C 452.773438 373.726562 455.792969 374.566406 450.515625 374.046875 C 449.355469 380.554688 452.523438 381.871094 458.214844 382.859375 Z M 458.214844 382.855469" fill-opacity="1" fill-rule="evenodd"></path><path fill="#ffffff" d="M 1090.65625 610.527344 C 1091.21875 612.441406 1091.695312 613.226562 1092.71875 614.382812 C 1096.925781 614.964844 1098.675781 614.828125 1100.453125 612.160156 C 1097.464844 610.769531 1094.667969 609.351562 1090.65625 610.527344 Z M 1090.65625 610.527344" fill-opacity="1" fill-rule="evenodd"></path><path fill="#ffffff" d="M 873.058594 526.09375 C 874.480469 521.371094 872.421875 518.765625 867.238281 518.21875 C 867.910156 522.800781 868.664062 525.207031 873.058594 526.09375 Z M 873.058594 526.09375" fill-opacity="1" fill-rule="evenodd"></path><path fill="#ffffff" d="M 1236.078125 557.050781 C 1241.457031 557.714844 1241.246094 552.675781 1241.519531 547.992188 C 1239.011719 550.476562 1235.726562 552.898438 1236.078125 557.050781 Z M 1236.078125 557.050781" fill-opacity="1" fill-rule="evenodd"></path><path fill="#ffffff" d="M 18.316406 133.640625 C 19.273438 129.179688 18.039062 126.476562 14.832031 125.375 C 13.113281 128.820312 14.035156 133.3125 18.316406 133.640625 Z M 18.316406 133.640625" fill-opacity="1" fill-rule="evenodd"></path><path fill="#ffffff" d="M 1188.15625 531.878906 C 1190.996094 530.738281 1190.636719 531.363281 1191.65625 528.128906 C 1191.894531 527.375 1192.21875 526.601562 1192.253906 525.804688 C 1192.457031 521.515625 1192.304688 524.332031 1191.410156 522.8125 C 1187.035156 524.160156 1188.6875 526.378906 1188.15625 531.878906 Z M 1188.15625 531.878906" fill-opacity="1" fill-rule="evenodd"></path><path fill="#ffffff" d="M 804.757812 648.949219 C 803.421875 645.222656 801.976562 645.296875 798.058594 644.960938 C 798.449219 649.644531 800.75 652.945312 804.757812 648.949219 Z M 804.757812 648.949219" fill-opacity="1" fill-rule="evenodd"></path><path fill="#ffffff" d="M 857.488281 346.085938 C 857.765625 348.996094 858.445312 352.558594 862.0625 350.765625 C 864.734375 349.441406 863.667969 348.316406 862.554688 345.84375 Z M 857.488281 346.085938" fill-opacity="1" fill-rule="evenodd"></path><path fill="#ffffff" d="M 98.941406 256.046875 C 101.90625 251.875 99.996094 250.320312 94.289062 251.167969 C 94.339844 255.253906 94.894531 255.804688 98.941406 256.046875 Z M 98.941406 256.046875" fill-opacity="1" fill-rule="evenodd"></path><path fill="#ffffff" d="M 996.109375 411.128906 C 994.941406 415.65625 997.773438 418.789062 1000.589844 415.710938 C 1003.011719 413.066406 999.578125 411.074219 996.109375 411.128906 Z M 996.109375 411.128906" fill-opacity="1" fill-rule="evenodd"></path><path fill="#ffffff" d="M 1052.21875 618.015625 C 1050.636719 617 1050.421875 616.820312 1048.015625 617.050781 C 1048.035156 621.605469 1051.273438 623.3125 1055.148438 621.4375 C 1054.5 619.605469 1053.574219 618.882812 1052.21875 618.015625 Z M 1052.21875 618.015625" fill-opacity="1" fill-rule="evenodd"></path><path fill="#ffffff" d="M 1128.46875 593.761719 C 1131 594.488281 1132.042969 594.03125 1133.976562 593.332031 C 1133.167969 587.078125 1127.011719 586.867188 1128.46875 593.761719 Z M 1128.46875 593.761719" fill-opacity="1" fill-rule="evenodd"></path><path fill="#ffffff" d="M 1029.980469 470.21875 L 1033.777344 471.40625 L 1036.320312 464.398438 C 1032.242188 465.828125 1030.414062 466.019531 1029.980469 470.21875 Z M 1029.980469 470.21875" fill-opacity="1" fill-rule="evenodd"></path><path fill="#ffffff" d="M 302.898438 313.445312 C 301.730469 316.613281 303.953125 318.085938 306.851562 318.746094 L 308.421875 317.289062 C 307.238281 314.136719 305.96875 311.929688 302.898438 313.445312 Z M 302.898438 313.445312" fill-opacity="1" fill-rule="evenodd"></path><path fill="#ffffff" d="M 458.316406 391.375 C 458.417969 391.003906 458.753906 390.773438 458.523438 389.460938 C 457.421875 383.1875 455.851562 385.347656 454.277344 385.316406 C 452.9375 389.101562 455.261719 391.761719 458.316406 391.375 Z M 458.316406 391.375" fill-opacity="1" fill-rule="evenodd"></path><path fill="#ffffff" d="M 902.101562 347.480469 C 903.640625 351.046875 905.050781 350.554688 909.265625 350.625 C 908.183594 346.820312 906.308594 345.078125 902.101562 347.480469 Z M 902.101562 347.480469" fill-opacity="1" fill-rule="evenodd"></path><path fill="#ffffff" d="M 1243.832031 412.242188 C 1245.710938 411.070312 1246.621094 412.136719 1246.375 407.980469 C 1246.179688 404.714844 1245.273438 405.105469 1243.476562 404.519531 C 1242.378906 408.265625 1243.074219 408.847656 1243.832031 412.242188 Z M 1243.832031 412.242188" fill-opacity="1" fill-rule="evenodd"></path><path fill="#ffffff" d="M 681.921875 612.691406 C 679.753906 610.71875 679.453125 610.5 675.695312 611.390625 C 675.820312 613.703125 675.636719 614.816406 678.285156 615.054688 C 681.609375 615.355469 681.21875 613.871094 681.921875 612.691406 Z M 681.921875 612.691406" fill-opacity="1" fill-rule="evenodd"></path><path fill="#ffffff" d="M 268.394531 290.140625 C 269.363281 287.089844 269.3125 286.859375 267.609375 284.675781 C 262.972656 284.828125 263.433594 291.488281 268.394531 290.140625 Z M 268.394531 290.140625" fill-opacity="1" fill-rule="evenodd"></path><path fill="#ffffff" d="M 935.167969 394.730469 C 934.132812 392.550781 936.703125 393.859375 932.820312 392.472656 C 931.109375 391.863281 929.644531 392.03125 928.03125 392.109375 C 929.195312 395.171875 931.441406 397.867188 935.167969 394.730469 Z M 935.167969 394.730469" fill-opacity="1" fill-rule="evenodd"></path><path fill="#ffffff" d="M 80.984375 277.242188 C 84.445312 274.289062 84.117188 272.390625 80.039062 271.484375 C 80.035156 271.488281 75.632812 273.46875 80.984375 277.242188 Z M 80.984375 277.242188" fill-opacity="1" fill-rule="evenodd"></path><path fill="#ffffff" d="M 186.035156 431.207031 C 186.691406 434.636719 186.554688 434.296875 188.71875 436.375 C 191.363281 433.703125 190.898438 432.582031 187.695312 429.832031 L 186.003906 429.195312 Z M 186.035156 431.207031" fill-opacity="1" fill-rule="evenodd"></path><path fill="#ffffff" d="M 976.71875 622.898438 C 980.417969 623.382812 981.429688 623.195312 982.292969 619.769531 C 978.695312 617.222656 977.503906 618.625 976.71875 622.898438 Z M 976.71875 622.898438" fill-opacity="1" fill-rule="evenodd"></path><path fill="#ffffff" d="M 650.453125 640.046875 C 649.222656 637.097656 647.414062 635.933594 644.558594 637.726562 C 645.511719 640.566406 645.367188 640.3125 648.148438 641.855469 Z M 650.453125 640.046875" fill-opacity="1" fill-rule="evenodd"></path><path fill="#ffffff" d="M 78.128906 255.769531 C 79.890625 255.691406 80.957031 256.179688 81.820312 254.566406 C 83.324219 251.761719 81.0625 250.890625 80.984375 250.757812 C 77.351562 251.785156 77.273438 251.636719 78.128906 255.769531 Z M 78.128906 255.769531" fill-opacity="1" fill-rule="evenodd"></path><path fill="#ffffff" d="M 252.820312 513.578125 L 256.855469 514.46875 C 256.953125 513.960938 258.542969 513.242188 257.003906 510.824219 C 256.011719 509.269531 255.96875 509.738281 253.957031 509.25 Z M 252.820312 513.578125" fill-opacity="1" fill-rule="evenodd"></path><path fill="#ffffff" d="M 206.675781 451.804688 C 207.292969 450.976562 208.527344 453.320312 207.902344 449.492188 C 207.34375 446.058594 208.34375 448.488281 205.730469 447.242188 C 204.675781 448.867188 203.957031 445.171875 204.738281 449.484375 C 205.257812 452.351562 204.96875 450.667969 206.675781 451.804688 Z M 206.675781 451.804688" fill-opacity="1" fill-rule="evenodd"></path><path fill="#ffffff" d="M 1068.589844 616.054688 C 1066.703125 615.863281 1066.71875 616.996094 1066.125 617.761719 C 1068.574219 619.910156 1068.3125 619.714844 1070.71875 618.707031 C 1070.355469 617.152344 1072.746094 616.476562 1068.589844 616.054688 Z M 1068.589844 616.054688" fill-opacity="1" fill-rule="evenodd"></path><path fill="#ffffff" d="M 280.382812 288.675781 C 280.460938 288.828125 281.316406 290.605469 281.355469 290.65625 C 283.234375 293.132812 282.46875 292.050781 284.417969 293.105469 C 283.644531 289.652344 282.90625 288.28125 279.671875 286.839844 Z M 280.382812 288.675781" fill-opacity="1" fill-rule="evenodd"></path><path fill="#ffffff" d="M 420.515625 435.644531 C 419.523438 431.851562 420.644531 432.726562 416.308594 432.273438 C 417.457031 435.652344 416.730469 435.03125 420.515625 435.644531 Z M 420.515625 435.644531" fill-opacity="1" fill-rule="evenodd"></path><path fill="#ffffff" d="M 297.875 303.382812 C 300.957031 301.875 301.117188 303.300781 299.691406 299.0625 C 297.015625 300.34375 297.074219 298.179688 297.875 303.382812 Z M 297.875 303.382812" fill-opacity="1" fill-rule="evenodd"></path><path fill="#929394" d="M 806.722656 516.695312 C 806.589844 512.804688 806.160156 510.949219 804.566406 508.484375 C 803.5 510.671875 805.308594 514.992188 806.722656 516.695312 Z M 806.722656 516.695312" fill-opacity="1" fill-rule="evenodd"></path><path fill="#ffffff" d="M 678.613281 566.167969 C 677.640625 562.964844 678.472656 563.25 675.683594 562.367188 L 674.695312 563.074219 C 675.472656 564.132812 673.074219 564.476562 678.613281 566.167969 Z M 678.613281 566.167969" fill-opacity="1" fill-rule="evenodd"></path><path fill="#ffffff" d="M 264.875 283.179688 C 265.707031 282.273438 267.003906 284.820312 266.007812 280.714844 C 265.460938 278.460938 264.882812 279 263.246094 278.160156 C 263.839844 280.765625 264.070312 280.839844 264.875 283.179688 Z M 264.875 283.179688" fill-opacity="1" fill-rule="evenodd"></path><path fill="#ffffff" d="M 866.957031 346.070312 C 868.621094 347.457031 864.410156 348.402344 871.292969 346.933594 C 871.234375 346.878906 871.667969 342.984375 866.957031 346.070312 Z M 866.957031 346.070312" fill-opacity="1" fill-rule="evenodd"></path><path fill="#ffffff" d="M 416.226562 438.203125 C 416.738281 438.589844 415.539062 441.242188 420.167969 438.335938 C 418.535156 437 422.1875 437.160156 418.316406 437.347656 C 416.59375 437.429688 417.175781 437.640625 416.226562 438.203125 Z M 416.226562 438.203125" fill-opacity="1" fill-rule="evenodd"></path><path fill="#535354" d="M 280.382812 288.675781 L 279.671875 286.839844 C 274.203125 286.355469 278.566406 286.429688 276.703125 287.941406 C 278.441406 289.308594 276.742188 288.65625 280.382812 288.675781 Z M 280.382812 288.675781" fill-opacity="1" fill-rule="evenodd"></path><path fill="#ffffff" d="M 1256.617188 419.058594 C 1258.542969 416.234375 1257.949219 417.664062 1256.617188 415.613281 C 1255.605469 416.871094 1255.324219 413.617188 1255.683594 417.386719 C 1255.886719 419.519531 1255.609375 418.074219 1256.617188 419.058594 Z M 1256.617188 419.058594" fill-opacity="1" fill-rule="evenodd"></path><path fill="#929394" d="M 184.132812 429.296875 L 186.035156 431.207031 L 186.003906 429.195312 L 187.695312 429.832031 C 186.777344 428.847656 188.75 428.925781 184.792969 428.039062 Z M 184.132812 429.296875" fill-opacity="1" fill-rule="evenodd"></path><path fill="#717375" d="M 1027.703125 626.292969 L 1030.695312 627.671875 C 1031.078125 626.667969 1031.136719 626.972656 1031.410156 625.28125 C 1031.480469 624.824219 1031.613281 622.945312 1031.671875 622.394531 C 1030.167969 624.765625 1030.734375 623.144531 1030.414062 626.640625 L 1027.703125 626.296875 Z M 1027.703125 626.292969" fill-opacity="1" fill-rule="evenodd"></path><path fill="#ffffff" d="M 1050.46875 587.519531 C 1050.347656 587.390625 1051.285156 584.300781 1047.25 587.167969 C 1048.625 587.890625 1048.726562 588.207031 1050.46875 587.519531 Z M 1050.46875 587.519531" fill-opacity="1" fill-rule="evenodd"></path><path fill="#535354" d="M 86.1875 275.429688 L 84.367188 271.210938 C 83.945312 276.863281 85.003906 274.382812 86.1875 275.429688 Z M 86.1875 275.429688" fill-opacity="1" fill-rule="evenodd"></path><path fill="#535354" d="M 325.898438 324.238281 C 325.125 321.054688 326.203125 322.820312 323.480469 321.539062 C 324.75 324.710938 322.707031 322.890625 325.898438 324.238281 Z M 325.898438 324.238281" fill-opacity="1" fill-rule="evenodd"></path><path fill="#ffffff" d="M 346.375 411.441406 C 349.378906 410.859375 347.746094 413.605469 349.339844 408.878906 Z M 346.375 411.441406" fill-opacity="1" fill-rule="evenodd"></path><path fill="#717375" d="M 796.527344 352.203125 C 796.484375 354.828125 797.441406 353.535156 797.8125 352.214844 C 798.429688 350.015625 796.539062 351.453125 796.527344 352.203125 Z M 796.527344 352.203125" fill-opacity="1" fill-rule="evenodd"></path><path fill="#ffffff" d="M 291.570312 298.765625 C 290.734375 295.902344 291.46875 296.515625 288.835938 295.585938 Z M 291.570312 298.765625" fill-opacity="1" fill-rule="evenodd"></path><path fill="#717375" d="M 794.492188 352.851562 C 791.691406 356.097656 794.425781 354.941406 794.492188 355.046875 C 794.578125 354.847656 794.8125 354.578125 794.832031 354.492188 Z M 794.492188 352.851562" fill-opacity="1" fill-rule="evenodd"></path><g clip-path="url(#ad6a512211)"><g clip-path="url(#e84cd3a369)"><g transform="matrix(1, 0, 0, 1, 720, 0.000000000000039746)"><g clip-path="url(#9c1d4cc4f3)"><g clip-path="url(#3eaa695136)"><g clip-path="url(#8b6736561c)"><path fill="#717375" d="M 0 -4.878906 L 14.179688 -4.878906 L 14.179688 4.878906 L 0 4.878906 Z M 0 -4.878906" fill-opacity="1" fill-rule="nonzero"></path></g></g></g></g></g></g></svg>